<svg width="44" height="44" viewBox="0 0 44 44" fill="none" xmlns="http://www.w3.org/2000/svg">
<circle cx="22" cy="22" r="22" fill="#E4CDD9"/>
<mask id="mask0_271_505" style="mask-type:alpha" maskUnits="userSpaceOnUse" x="0" y="0" width="44" height="44">
<circle cx="22" cy="22" r="22" fill="#E4CDD9"/>
</mask>
<g mask="url(#mask0_271_505)">
<path d="M12.5264 22C12.817 22 13.0527 22.2357 13.0527 22.5264V26H16.7627C17.0388 26 17.2627 26.2239 17.2627 26.5C17.2627 26.7761 17.0388 27 16.7627 27H13C12.4477 27 12 26.5523 12 26H12.0029C12.0021 25.9825 12 25.9649 12 25.9473V22.5264C12 22.2357 12.2357 22 12.5264 22Z" fill="#B75787"/>
<path d="M31.4736 22C31.183 22 30.9473 22.2357 30.9473 22.5264V26H27.2373C26.9612 26 26.7373 26.2239 26.7373 26.5C26.7373 26.7761 26.9612 27 27.2373 27H31C31.5523 27 32 26.5523 32 26H31.9971C31.9979 25.9825 32 25.9649 32 25.9473V22.5264C32 22.2357 31.7643 22 31.4736 22Z" fill="#B75787"/>
<path d="M12.5264 13C12.817 13 13.0527 12.7643 13.0527 12.4736V9H16.7627C17.0388 9 17.2627 8.77614 17.2627 8.5C17.2627 8.22386 17.0388 8 16.7627 8H13C12.4477 8 12 8.44772 12 9H12.0029C12.0021 9.01746 12 9.03506 12 9.05273V12.4736C12 12.7643 12.2357 13 12.5264 13Z" fill="#B75787"/>
<path d="M31.4736 13C31.183 13 30.9473 12.7643 30.9473 12.4736V9H27.2373C26.9612 9 26.7373 8.77614 26.7373 8.5C26.7373 8.22386 26.9612 8 27.2373 8H31C31.5523 8 32 8.44772 32 9H31.9971C31.9979 9.01746 32 9.03506 32 9.05273V12.4736C32 12.7643 31.7643 13 31.4736 13Z" fill="#B75787"/>
<path d="M22 27C29.1797 27 35 33.0442 35 40.5C35 41.3182 34.9292 42.1194 34.7949 42.8975C31.1897 45.4794 26.7726 47 22 47C17.2271 47 12.8094 45.4797 9.2041 42.8975C9.06982 42.1194 9 41.3182 9 40.5C9 33.0442 14.8203 27 22 27Z" fill="#B75787"/>
<ellipse cx="22" cy="17.5" rx="7" ry="7.5" fill="#B75787"/>
</g>
</svg>
