<svg width="36" height="36" viewBox="0 0 36 36" fill="none" xmlns="http://www.w3.org/2000/svg">
<circle cx="18" cy="18" r="18" fill="white"/>
<path d="M36 18C36 27.9176 27.9353 36 18 36C8.08235 36 0 27.9176 0 18C0 8.0647 8.08235 0 18 0C27.9353 0 36 8.0647 36 18ZM23.4882 10.9941L15.9529 23.1L12.3706 18.4765C11.9294 17.8941 11.5412 17.7353 11.0294 17.7353C10.2353 17.7353 9.61764 18.3882 9.61764 19.1823C9.61764 19.5882 9.77646 19.9764 10.0412 20.3294L14.4706 25.7647C14.9294 26.3823 15.4235 26.6294 16.0235 26.6294C16.6235 26.6294 17.1353 26.347 17.5059 25.7647L25.8 12.7058C26.0118 12.3353 26.2412 11.9294 26.2412 11.5412C26.2412 10.7117 25.5177 10.1824 24.7411 10.1824C24.2823 10.1824 23.8235 10.4647 23.4882 10.9941Z" fill="#9CD121"/>
</svg>
