<svg width="44" height="44" viewBox="0 0 44 44" fill="none" xmlns="http://www.w3.org/2000/svg">
<circle cx="22" cy="22" r="22" fill="#E4CDD9"/>
<path d="M30.8997 14C34.0919 14 36.8311 14.7591 37.9983 16.9365C38.1806 16.8495 38.3844 16.7998 38.5999 16.7998C39.3731 16.7998 40.0002 17.427 40.0002 18.2002C40.0001 18.9732 39.3729 19.5996 38.5999 19.5996C38.5999 23.8521 35.1523 27.2998 30.8997 27.2998C26.7802 27.2996 23.4164 24.0642 23.2102 19.9961L23.2004 19.5996H21.51C21.51 23.8521 18.0624 27.2998 13.8098 27.2998C9.55743 27.2996 6.1106 23.8519 6.1106 19.5996C6.1106 19.5895 6.11056 19.5794 6.1106 19.5693C5.47641 19.436 5.00039 18.874 5.00024 18.2002C5.00024 17.4271 5.62661 16.8 6.39966 16.7998C6.52497 16.7998 6.64639 16.8178 6.76196 16.8486C7.95531 14.7393 10.6614 14.0001 13.8098 14C17.5552 14 20.6744 15.0457 21.3655 18.2002H23.345C24.0361 15.0458 27.1544 14.0001 30.8997 14Z" fill="#B75787"/>
<path d="M31.1692 30.9864C30.9436 30.7608 30.9436 30.3949 31.1692 30.1692C31.3949 29.9436 31.7608 29.9436 31.9864 30.1692L36.7533 34.9361C36.979 35.1618 36.979 35.5277 36.7533 35.7533C36.5277 35.979 36.1618 35.979 35.9361 35.7533L31.1692 30.9864Z" fill="#B75787"/>
<path d="M35.9361 30.1692C36.1618 29.9436 36.5277 29.9436 36.7533 30.1692C36.979 30.3949 36.979 30.7608 36.7533 30.9864L31.9864 35.7533C31.7608 35.979 31.3949 35.979 31.1692 35.7533C30.9436 35.5277 30.9436 35.1618 31.1692 34.9361L35.9361 30.1692Z" fill="#B75787"/>
</svg>
