<svg width="44" height="44" viewBox="0 0 44 44" fill="none" xmlns="http://www.w3.org/2000/svg">
<circle cx="22" cy="22" r="22" fill="#E4CDD9"/>
<path d="M14.7344 24.082C14.7344 23.8867 14.819 23.6784 14.9883 23.457L23.8652 12.373C24.028 12.1647 24.2038 12.0378 24.3926 11.9922C24.5879 11.9466 24.7604 11.9661 24.9102 12.0508C25.0664 12.1289 25.1738 12.2591 25.2324 12.4414C25.2975 12.6237 25.2812 12.8385 25.1836 13.0859L22.2734 20.9961H27.791C27.9993 20.9961 28.1686 21.0612 28.2988 21.1914C28.429 21.3151 28.4941 21.4714 28.4941 21.6602C28.4941 21.862 28.4095 22.0703 28.2402 22.2852L19.3633 33.3789C19.2005 33.5807 19.0215 33.7044 18.8262 33.75C18.6374 33.8021 18.4648 33.7858 18.3086 33.7012C18.1589 33.623 18.0514 33.4928 17.9863 33.3105C17.9277 33.1283 17.9473 32.9102 18.0449 32.6562L20.9551 24.7461H15.4375C15.2292 24.7461 15.0599 24.6842 14.9297 24.5605C14.7995 24.4303 14.7344 24.2708 14.7344 24.082Z" fill="#B75787"/>
</svg>
