<svg width="36" height="36" viewBox="0 0 36 36" fill="none" xmlns="http://www.w3.org/2000/svg">
<circle cx="18" cy="18" r="18" fill="white"/>
<path d="M36 18C36 27.9176 27.9353 36 18 36C8.08235 36 0 27.9176 0 18C0 8.0647 8.08235 0 18 0C27.9353 0 36 8.0647 36 18ZM22.9588 11.047L18 15.9706L13.0765 11.0647C12.7941 10.8 12.4764 10.6588 12.0705 10.6588C11.2588 10.6588 10.6235 11.2764 10.6235 12.1059C10.6235 12.4941 10.7647 12.8471 11.047 13.1294L15.9352 18.0177L11.047 22.9235C10.7647 23.1883 10.6235 23.5588 10.6235 23.947C10.6235 24.7588 11.2588 25.4117 12.0705 25.4117C12.4764 25.4117 12.8471 25.2706 13.1294 24.9882L18 20.0823L22.8882 24.9882C23.1529 25.2706 23.5235 25.4117 23.9294 25.4117C24.7588 25.4117 25.4117 24.7588 25.4117 23.947C25.4117 23.5411 25.2706 23.1706 24.9705 22.9059L20.0823 18.0177L24.9882 13.1117C25.3058 12.7941 25.4294 12.4764 25.4294 12.0705C25.4294 11.2588 24.7765 10.6235 23.9647 10.6235C23.5765 10.6235 23.2588 10.7471 22.9588 11.047Z" fill="#DB536D"/>
</svg>
