<svg width="44" height="44" viewBox="0 0 44 44" fill="none" xmlns="http://www.w3.org/2000/svg">
<circle cx="22" cy="22" r="22" fill="#E4CDD9"/>
<mask id="mask0_271_508" style="mask-type:alpha" maskUnits="userSpaceOnUse" x="0" y="0" width="44" height="44">
<circle cx="22" cy="22" r="22" fill="#E4CDD9"/>
</mask>
<g mask="url(#mask0_271_508)">
<path d="M-7 13.7804C-7 11.057 -7 9.6953 -6.47103 8.6551C-6.00573 7.74012 -5.26328 6.99622 -4.35009 6.53001C-3.31193 6 -1.9529 6 0.765167 6H19.2074C21.9255 6 23.2845 6 24.3227 6.53001C25.2359 6.99622 25.9783 7.74012 26.4436 8.6551C26.9726 9.6953 26.9726 11.057 26.9726 13.7804V60.2196C26.9726 62.943 26.9726 64.3047 26.4436 65.3449C25.9783 66.2599 25.2359 67.0038 24.3227 67.47C23.2845 68 21.9255 68 19.2074 68H0.765166C-1.9529 68 -3.31193 68 -4.35009 67.47C-5.26328 67.0038 -6.00573 66.2599 -6.47103 65.3449C-7 64.3047 -7 62.943 -7 60.2196V13.7804Z" fill="#B75787"/>
<path d="M-4.57339 10.8627C-4.57339 9.51993 -3.48695 8.43137 -2.14677 8.43137H8.77299C10.1132 8.43137 11.1996 9.51993 11.1996 10.8627V21.8039C11.1996 23.1467 10.1132 24.2353 8.77299 24.2353H-2.14677C-3.48695 24.2353 -4.57339 23.1467 -4.57339 21.8039V10.8627Z" fill="#E4CDD9"/>
<path d="M9.9863 19.3725C9.9863 21.3868 8.35665 23.0196 6.34638 23.0196C4.33611 23.0196 2.70646 21.3868 2.70646 19.3725C2.70646 17.3583 4.33611 15.7255 6.34638 15.7255C8.35665 15.7255 9.9863 17.3583 9.9863 19.3725Z" fill="#B75787"/>
<path d="M3.91977 13.2941C3.91977 15.3083 2.29012 16.9412 0.279843 16.9412C-1.73043 16.9412 -3.36008 15.3083 -3.36008 13.2941C-3.36008 11.2799 -1.73043 9.64706 0.279843 9.64706C2.29012 9.64706 3.91977 11.2799 3.91977 13.2941Z" fill="#B75787"/>
<path d="M8.77299 12.6863C8.77299 13.6934 7.95817 14.5098 6.95303 14.5098C5.9479 14.5098 5.13307 13.6934 5.13307 12.6863C5.13307 11.6792 5.9479 10.8627 6.95303 10.8627C7.95817 10.8627 8.77299 11.6792 8.77299 12.6863Z" fill="#F9F3F2"/>
<path d="M0.279843 19.9804C0.279843 20.3161 0.00823569 20.5882 -0.32681 20.5882C-0.661855 20.5882 -0.933463 20.3161 -0.933463 19.9804C-0.933463 19.6447 -0.661855 19.3725 -0.32681 19.3725C0.00823569 19.3725 0.279843 19.6447 0.279843 19.9804Z" fill="black"/>
<path d="M26.9726 29.3562C26.9726 29.1216 27.1627 28.9315 27.3973 28.9315C27.6318 28.9315 27.8219 29.1216 27.8219 29.3562V32.7534C27.8219 32.988 27.6318 33.1781 27.3973 33.1781C27.1627 33.1781 26.9726 32.988 26.9726 32.7534V29.3562Z" fill="#B75787"/>
<path d="M26.9726 24.2603C26.9726 24.0257 27.1627 23.8356 27.3973 23.8356C27.6318 23.8356 27.8219 24.0257 27.8219 24.2603V27.6575C27.8219 27.8921 27.6318 28.0822 27.3973 28.0822C27.1627 28.0822 26.9726 27.8921 26.9726 27.6575V24.2603Z" fill="#B75787"/>
</g>
<path d="M40 31H30M30 31L33 28M30 31L33 34" stroke="#B75787" stroke-linecap="round"/>
</svg>
