<svg width="44" height="44" viewBox="0 0 44 44" fill="none" xmlns="http://www.w3.org/2000/svg">
<circle cx="22" cy="22" r="22" fill="#E4CDD9"/>
<mask id="mask0_271_507" style="mask-type:alpha" maskUnits="userSpaceOnUse" x="0" y="0" width="44" height="44">
<circle cx="22" cy="22" r="22" fill="#E4CDD9"/>
</mask>
<g mask="url(#mask0_271_507)">
<path d="M11 17.2824C11 14.3833 11 12.9337 11.5642 11.8264C12.0605 10.8524 12.8524 10.0605 13.8264 9.5642C14.9337 9 16.3833 9 19.2824 9H38.9529C41.852 9 43.3016 9 44.4089 9.5642C45.3829 10.0605 46.1748 10.8524 46.6711 11.8264C47.2353 12.9337 47.2353 14.3833 47.2353 17.2824V66.7176C47.2353 69.6167 47.2353 71.0663 46.6711 72.1736C46.1748 73.1476 45.3829 73.9395 44.4089 74.4358C43.3016 75 41.852 75 38.9529 75H19.2824C16.3833 75 14.9337 75 13.8264 74.4358C12.8524 73.9395 12.0605 73.1476 11.5642 72.1736C11 71.0663 11 69.6167 11 66.7176V17.2824Z" fill="#B75787"/>
<path d="M13.5882 14.1765C13.5882 12.747 14.747 11.5882 16.1765 11.5882H27.8235C29.253 11.5882 30.4118 12.747 30.4118 14.1765V25.8235C30.4118 27.253 29.253 28.4118 27.8235 28.4118H16.1765C14.747 28.4118 13.5882 27.253 13.5882 25.8235V14.1765Z" fill="#E4CDD9"/>
<path d="M29.1176 23.2353C29.1176 25.3795 27.3795 27.1176 25.2353 27.1176C23.0911 27.1176 21.3529 25.3795 21.3529 23.2353C21.3529 21.0911 23.0911 19.3529 25.2353 19.3529C27.3795 19.3529 29.1176 21.0911 29.1176 23.2353Z" fill="#B75787"/>
<path d="M22.6471 16.7647C22.6471 18.9089 20.9089 20.6471 18.7647 20.6471C16.6205 20.6471 14.8824 18.9089 14.8824 16.7647C14.8824 14.6205 16.6205 12.8824 18.7647 12.8824C20.9089 12.8824 22.6471 14.6205 22.6471 16.7647Z" fill="#B75787"/>
<path d="M27.8235 16.1176C27.8235 17.1897 26.9544 18.0588 25.8824 18.0588C24.8103 18.0588 23.9412 17.1897 23.9412 16.1176C23.9412 15.0456 24.8103 14.1765 25.8824 14.1765C26.9544 14.1765 27.8235 15.0456 27.8235 16.1176Z" fill="#F9F3F2"/>
<path d="M18.7647 23.8824C18.7647 24.2397 18.475 24.5294 18.1176 24.5294C17.7603 24.5294 17.4706 24.2397 17.4706 23.8824C17.4706 23.525 17.7603 23.2353 18.1176 23.2353C18.475 23.2353 18.7647 23.525 18.7647 23.8824Z" fill="black"/>
</g>
</svg>
